<?xml version="1.0" encoding="utf-8"?>
<!-- Generator: Adobe Illustrator 26.3.1, SVG Export Plug-In . SVG Version: 6.00 Build 0)  -->
<svg version="1.1" id="Layer_1" xmlns="http://www.w3.org/2000/svg" xmlns:xlink="http://www.w3.org/1999/xlink" x="0px" y="0px"
	 viewBox="0 0 869.6 957.9" style="enable-background:new 0 0 869.6 957.9;" xml:space="preserve">
<style type="text/css">
	.st0{fill:none;}
	.st1{fill:#FFC904;}
</style>
<g id="Ellipse_4" transform="translate(1281 407)">
	<circle class="st0" cx="-800" cy="134.4" r="252"/>
	<path class="st1" d="M-800,386.4c-67.3,0-130.6-26.2-178.2-73.8s-73.8-110.9-73.8-178.2s26.2-130.6,73.8-178.2
		s110.9-73.8,178.2-73.8s130.6,26.2,178.2,73.8C-574.2,3.8-548,67.1-548,134.4s-26.2,130.6-73.8,178.2
		C-669.4,360.2-732.7,386.4-800,386.4z M-800-114.6c-66.5,0-129,25.9-176.1,72.9c-47,47-72.9,109.6-72.9,176.1
		c0,66.5,25.9,129,72.9,176.1c47,47,109.6,72.9,176.1,72.9c66.5,0,129-25.9,176.1-72.9c47-47,72.9-109.6,72.9-176.1
		c0-66.5-25.9-129-72.9-176.1C-671-88.7-733.5-114.6-800-114.6z"/>
</g>
<g id="Ellipse_5" transform="translate(1052 183)">
	<circle class="st0" cx="-846.5" cy="87.9" r="205.5"/>
	<path class="st1" d="M-846.5,293.4c-113.3,0-205.5-92.2-205.5-205.5c0-113.3,92.2-205.5,205.5-205.5S-641-25.4-641,87.9
		C-641,201.2-733.2,293.4-846.5,293.4z M-846.5-114.6c-111.7,0-202.5,90.8-202.5,202.5c0,111.7,90.8,202.5,202.5,202.5
		S-644,199.5-644,87.9C-644-23.8-734.8-114.6-846.5-114.6z"/>
</g>
<path class="st1" d="M94.6,957.9l-2.1-2.1l2.1-2.1l2.1,2.1L94.6,957.9z M98.8,953.7l-2.1-2.1l2.1-2.1l2.1,2.1L98.8,953.7z
	 M103.1,949.5l-2.1-2.1l2.1-2.1l2.1,2.1L103.1,949.5z M107.3,945.3l-2.1-2.1l2.1-2.1l2.1,2.1L107.3,945.3z M111.6,941l-2.1-2.1
	l2.1-2.1l2.1,2.1L111.6,941z M115.9,936.8l-2.1-2.1l2.1-2.1l2.1,2.1L115.9,936.8z M120.1,932.6l-2.1-2.1l2.1-2.1l2.1,2.1
	L120.1,932.6z M124.4,928.4l-2.1-2.1l2.1-2.1l2.1,2.1L124.4,928.4z M128.7,924.2l-2.1-2.1l2.1-2.1l2.1,2.1L128.7,924.2z
	 M132.9,919.9l-2.1-2.1l2.1-2.1l2.1,2.1L132.9,919.9z M137.2,915.7l-2.1-2.1l2.1-2.1l2.1,2.1L137.2,915.7z M141.4,911.5l-2.1-2.1
	l2.1-2.1l2.1,2.1L141.4,911.5z M145.7,907.3l-2.1-2.1l2.1-2.1l2.1,2.1L145.7,907.3z M150,903l-2.1-2.1l2.1-2.1l2.1,2.1L150,903z
	 M154.2,898.8l-2.1-2.1l2.1-2.1l2.1,2.1L154.2,898.8z M158.5,894.6l-2.1-2.1l2.1-2.1l2.1,2.1L158.5,894.6z M162.7,890.4l-2.1-2.1
	l2.1-2.1l2.1,2.1L162.7,890.4z M167,886.1l-2.1-2.1l2.1-2.1l2.1,2.1L167,886.1z M171.3,881.9l-2.1-2.1l2.1-2.1l2.1,2.1L171.3,881.9z
	 M175.5,877.7l-2.1-2.1l2.1-2.1l2.1,2.1L175.5,877.7z M179.8,873.5l-2.1-2.1l2.1-2.1l2.1,2.1L179.8,873.5z M184.1,869.2l-2.1-2.1
	l2.1-2.1l2.1,2.1L184.1,869.2z M188.3,865l-2.1-2.1l2.1-2.1l2.1,2.1L188.3,865z M192.6,860.8l-2.1-2.1l2.1-2.1l2.1,2.1L192.6,860.8z
	 M196.8,856.6l-2.1-2.1l2.1-2.1l2.1,2.1L196.8,856.6z M201.1,852.4l-2.1-2.1l2.1-2.1l2.1,2.1L201.1,852.4z M205.4,848.1l-2.1-2.1
	l2.1-2.1l2.1,2.1L205.4,848.1z M209.6,843.9l-2.1-2.1l2.1-2.1l2.1,2.1L209.6,843.9z M213.9,839.7l-2.1-2.1l2.1-2.1l2.1,2.1
	L213.9,839.7z M218.1,835.5l-2.1-2.1l2.1-2.1l2.1,2.1L218.1,835.5z M222.4,831.2l-2.1-2.1l2.1-2.1l2.1,2.1L222.4,831.2z M226.7,827
	l-2.1-2.1l2.1-2.1l2.1,2.1L226.7,827z M230.9,822.8l-2.1-2.1l2.1-2.1l2.1,2.1L230.9,822.8z M235.2,818.6l-2.1-2.1l2.1-2.1l2.1,2.1
	L235.2,818.6z M239.5,814.3l-2.1-2.1l2.1-2.1l2.1,2.1L239.5,814.3z M243.7,810.1l-2.1-2.1l2.1-2.1l2.1,2.1L243.7,810.1z M248,805.9
	l-2.1-2.1l2.1-2.1l2.1,2.1L248,805.9z M252.2,801.7l-2.1-2.1l2.1-2.1l2.1,2.1L252.2,801.7z M256.5,797.5l-2.1-2.1l2.1-2.1l2.1,2.1
	L256.5,797.5z M260.8,793.2l-2.1-2.1l2.1-2.1l2.1,2.1L260.8,793.2z M265,789l-2.1-2.1l2.1-2.1l2.1,2.1L265,789z M269.3,784.8
	l-2.1-2.1l2.1-2.1l2.1,2.1L269.3,784.8z M273.6,780.6l-2.1-2.1l2.1-2.1l2.1,2.1L273.6,780.6z M277.8,776.3l-2.1-2.1l2.1-2.1l2.1,2.1
	L277.8,776.3z M282.1,772.1L280,770l2.1-2.1l2.1,2.1L282.1,772.1z M286.3,767.9l-2.1-2.1l2.1-2.1l2.1,2.1L286.3,767.9z M290.6,763.7
	l-2.1-2.1l2.1-2.1l2.1,2.1L290.6,763.7z M294.9,759.4l-2.1-2.1l2.1-2.1l2.1,2.1L294.9,759.4z M299.1,755.2l-2.1-2.1l2.1-2.1l2.1,2.1
	L299.1,755.2z M303.4,751l-2.1-2.1l2.1-2.1l2.1,2.1L303.4,751z M307.6,746.8l-2.1-2.1l2.1-2.1l2.1,2.1L307.6,746.8z M311.9,742.5
	l-2.1-2.1l2.1-2.1l2.1,2.1L311.9,742.5z M316.2,738.3l-2.1-2.1l2.1-2.1l2.1,2.1L316.2,738.3z M320.4,734.1l-2.1-2.1l2.1-2.1l2.1,2.1
	L320.4,734.1z M324.7,729.9l-2.1-2.1l2.1-2.1l2.1,2.1L324.7,729.9z M329,725.7l-2.1-2.1l2.1-2.1l2.1,2.1L329,725.7z M333.2,721.4
	l-2.1-2.1l2.1-2.1l2.1,2.1L333.2,721.4z M337.5,717.2l-2.1-2.1l2.1-2.1l2.1,2.1L337.5,717.2z M341.7,713l-2.1-2.1l2.1-2.1l2.1,2.1
	L341.7,713z M346,708.8l-2.1-2.1l2.1-2.1l2.1,2.1L346,708.8z M350.3,704.5l-2.1-2.1l2.1-2.1l2.1,2.1L350.3,704.5z M354.5,700.3
	l-2.1-2.1l2.1-2.1l2.1,2.1L354.5,700.3z M358.8,696.1l-2.1-2.1l2.1-2.1l2.1,2.1L358.8,696.1z M363.1,691.9l-2.1-2.1l2.1-2.1l2.1,2.1
	L363.1,691.9z M367.3,687.6l-2.1-2.1l2.1-2.1l2.1,2.1L367.3,687.6z M371.6,683.4l-2.1-2.1l2.1-2.1l2.1,2.1L371.6,683.4z
	 M375.8,679.2l-2.1-2.1l2.1-2.1l2.1,2.1L375.8,679.2z M380.1,675l-2.1-2.1l2.1-2.1l2.1,2.1L380.1,675z M384.4,670.8l-2.1-2.1
	l2.1-2.1l2.1,2.1L384.4,670.8z M388.6,666.5l-2.1-2.1l2.1-2.1l2.1,2.1L388.6,666.5z M392.9,662.3l-2.1-2.1l2.1-2.1l2.1,2.1
	L392.9,662.3z M397.1,658.1l-2.1-2.1l2.1-2.1l2.1,2.1L397.1,658.1z M401.4,653.9l-2.1-2.1l2.1-2.1l2.1,2.1L401.4,653.9z
	 M405.7,649.6l-2.1-2.1l2.1-2.1l2.1,2.1L405.7,649.6z M409.9,645.4l-2.1-2.1l2.1-2.1l2.1,2.1L409.9,645.4z M414.2,641.2l-2.1-2.1
	l2.1-2.1l2.1,2.1L414.2,641.2z M418.5,637l-2.1-2.1l2.1-2.1l2.1,2.1L418.5,637z M422.7,632.7l-2.1-2.1l2.1-2.1l2.1,2.1L422.7,632.7z
	 M427,628.5l-2.1-2.1l2.1-2.1l2.1,2.1L427,628.5z M431.2,624.3l-2.1-2.1l2.1-2.1l2.1,2.1L431.2,624.3z M435.5,620.1l-2.1-2.1
	l2.1-2.1l2.1,2.1L435.5,620.1z M439.8,615.8l-2.1-2.1l2.1-2.1l2.1,2.1L439.8,615.8z M444,611.6l-2.1-2.1l2.1-2.1l2.1,2.1L444,611.6z
	 M448.3,607.4l-2.1-2.1l2.1-2.1l2.1,2.1L448.3,607.4z M452.6,603.2l-2.1-2.1l2.1-2.1l2.1,2.1L452.6,603.2z M456.8,599l-2.1-2.1
	l2.1-2.1l2.1,2.1L456.8,599z M461.1,594.7l-2.1-2.1l2.1-2.1l2.1,2.1L461.1,594.7z M465.3,590.5l-2.1-2.1l2.1-2.1l2.1,2.1
	L465.3,590.5z M469.6,586.3l-2.1-2.1l2.1-2.1l2.1,2.1L469.6,586.3z M473.9,582.1l-2.1-2.1l2.1-2.1l2.1,2.1L473.9,582.1z
	 M478.1,577.8l-2.1-2.1l2.1-2.1l2.1,2.1L478.1,577.8z M482.4,573.6l-2.1-2.1l2.1-2.1l2.1,2.1L482.4,573.6z M486.6,569.4l-2.1-2.1
	l2.1-2.1l2.1,2.1L486.6,569.4z M490.9,565.2l-2.1-2.1l2.1-2.1l2.1,2.1L490.9,565.2z M495.2,560.9l-2.1-2.1l2.1-2.1l2.1,2.1
	L495.2,560.9z M499.4,556.7l-2.1-2.1l2.1-2.1l2.1,2.1L499.4,556.7z M503.7,552.5l-2.1-2.1l2.1-2.1l2.1,2.1L503.7,552.5z M508,548.3
	l-2.1-2.1l2.1-2.1l2.1,2.1L508,548.3z M512.2,544.1l-2.1-2.1l2.1-2.1l2.1,2.1L512.2,544.1z M516.5,539.8l-2.1-2.1l2.1-2.1l2.1,2.1
	L516.5,539.8z M520.7,535.6l-2.1-2.1l2.1-2.1l2.1,2.1L520.7,535.6z M525,531.4l-2.1-2.1l2.1-2.1l2.1,2.1L525,531.4z M529.3,527.2
	l-2.1-2.1l2.1-2.1l2.1,2.1L529.3,527.2z M533.5,522.9l-2.1-2.1l2.1-2.1l2.1,2.1L533.5,522.9z M537.8,518.7l-2.1-2.1l2.1-2.1l2.1,2.1
	L537.8,518.7z M542,514.5l-2.1-2.1l2.1-2.1l2.1,2.1L542,514.5z M546.3,510.3l-2.1-2.1l2.1-2.1l2.1,2.1L546.3,510.3z M550.6,506
	l-2.1-2.1l2.1-2.1l2.1,2.1L550.6,506z M554.8,501.8l-2.1-2.1l2.1-2.1l2.1,2.1L554.8,501.8z M559.1,497.6l-2.1-2.1l2.1-2.1l2.1,2.1
	L559.1,497.6z M563.4,493.4l-2.1-2.1l2.1-2.1l2.1,2.1L563.4,493.4z M567.6,489.1l-2.1-2.1l2.1-2.1l2.1,2.1L567.6,489.1z
	 M571.9,484.9l-2.1-2.1l2.1-2.1l2.1,2.1L571.9,484.9z M576.1,480.7l-2.1-2.1l2.1-2.1l2.1,2.1L576.1,480.7z M580.4,476.5l-2.1-2.1
	l2.1-2.1l2.1,2.1L580.4,476.5z M584.7,472.3l-2.1-2.1l2.1-2.1l2.1,2.1L584.7,472.3z M588.9,468l-2.1-2.1l2.1-2.1l2.1,2.1L588.9,468z
	 M593.2,463.8l-2.1-2.1l2.1-2.1l2.1,2.1L593.2,463.8z M597.5,459.6l-2.1-2.1l2.1-2.1l2.1,2.1L597.5,459.6z M601.7,455.4l-2.1-2.1
	l2.1-2.1l2.1,2.1L601.7,455.4z M606,451.1l-2.1-2.1l2.1-2.1l2.1,2.1L606,451.1z M610.2,446.9l-2.1-2.1l2.1-2.1l2.1,2.1L610.2,446.9z
	 M614.5,442.7l-2.1-2.1l2.1-2.1l2.1,2.1L614.5,442.7z M618.8,438.5l-2.1-2.1l2.1-2.1l2.1,2.1L618.8,438.5z M623,434.2l-2.1-2.1
	l2.1-2.1l2.1,2.1L623,434.2z M627.3,430l-2.1-2.1l2.1-2.1l2.1,2.1L627.3,430z M631.5,425.8l-2.1-2.1l2.1-2.1l2.1,2.1L631.5,425.8z
	 M635.8,421.6l-2.1-2.1l2.1-2.1l2.1,2.1L635.8,421.6z M640.1,417.4l-2.1-2.1l2.1-2.1l2.1,2.1L640.1,417.4z M644.3,413.1l-2.1-2.1
	l2.1-2.1l2.1,2.1L644.3,413.1z M648.6,408.9l-2.1-2.1l2.1-2.1l2.1,2.1L648.6,408.9z M652.9,404.7l-2.1-2.1l2.1-2.1l2.1,2.1
	L652.9,404.7z M657.1,400.5l-2.1-2.1l2.1-2.1l2.1,2.1L657.1,400.5z M661.4,396.2l-2.1-2.1l2.1-2.1l2.1,2.1L661.4,396.2z M665.6,392
	l-2.1-2.1l2.1-2.1l2.1,2.1L665.6,392z M669.9,387.8l-2.1-2.1l2.1-2.1l2.1,2.1L669.9,387.8z M674.2,383.6l-2.1-2.1l2.1-2.1l2.1,2.1
	L674.2,383.6z M678.4,379.3l-2.1-2.1l2.1-2.1l2.1,2.1L678.4,379.3z M682.7,375.1l-2.1-2.1l2.1-2.1l2.1,2.1L682.7,375.1z M687,370.9
	l-2.1-2.1l2.1-2.1l2.1,2.1L687,370.9z M691.2,366.7l-2.1-2.1l2.1-2.1l2.1,2.1L691.2,366.7z M695.5,362.4l-2.1-2.1l2.1-2.1l2.1,2.1
	L695.5,362.4z M699.7,358.2l-2.1-2.1l2.1-2.1l2.1,2.1L699.7,358.2z M704,354l-2.1-2.1l2.1-2.1l2.1,2.1L704,354z M708.3,349.8
	l-2.1-2.1l2.1-2.1l2.1,2.1L708.3,349.8z M712.5,345.6l-2.1-2.1l2.1-2.1l2.1,2.1L712.5,345.6z M716.8,341.3l-2.1-2.1l2.1-2.1l2.1,2.1
	L716.8,341.3z M721,337.1l-2.1-2.1l2.1-2.1l2.1,2.1L721,337.1z M725.3,332.9l-2.1-2.1l2.1-2.1l2.1,2.1L725.3,332.9z M729.6,328.7
	l-2.1-2.1l2.1-2.1l2.1,2.1L729.6,328.7z M733.8,324.4l-2.1-2.1l2.1-2.1l2.1,2.1L733.8,324.4z M738.1,320.2l-2.1-2.1l2.1-2.1l2.1,2.1
	L738.1,320.2z M742.4,316l-2.1-2.1l2.1-2.1l2.1,2.1L742.4,316z M746.6,311.8l-2.1-2.1l2.1-2.1l2.1,2.1L746.6,311.8z M750.9,307.5
	l-2.1-2.1l2.1-2.1l2.1,2.1L750.9,307.5z M755.1,303.3l-2.1-2.1l2.1-2.1l2.1,2.1L755.1,303.3z M759.4,299.1l-2.1-2.1l2.1-2.1l2.1,2.1
	L759.4,299.1z M763.7,294.9l-2.1-2.1l2.1-2.1l2.1,2.1L763.7,294.9z M767.9,290.6l-2.1-2.1l2.1-2.1l2.1,2.1L767.9,290.6z
	 M772.2,286.4l-2.1-2.1l2.1-2.1l2.1,2.1L772.2,286.4z M776.5,282.2l-2.1-2.1l2.1-2.1l2.1,2.1L776.5,282.2z M780.7,278l-2.1-2.1
	l2.1-2.1l2.1,2.1L780.7,278z M785,273.8l-2.1-2.1l2.1-2.1l2.1,2.1L785,273.8z M789.2,269.5l-2.1-2.1l2.1-2.1l2.1,2.1L789.2,269.5z
	 M793.5,265.3l-2.1-2.1l2.1-2.1l2.1,2.1L793.5,265.3z M797.8,261.1l-2.1-2.1l2.1-2.1l2.1,2.1L797.8,261.1z M802,256.9l-2.1-2.1
	l2.1-2.1l2.1,2.1L802,256.9z M806.3,252.6l-2.1-2.1l2.1-2.1l2.1,2.1L806.3,252.6z M810.5,248.4l-2.1-2.1l2.1-2.1l2.1,2.1
	L810.5,248.4z M814.8,244.2l-2.1-2.1l2.1-2.1l2.1,2.1L814.8,244.2z M819.1,240l-2.1-2.1l2.1-2.1l2.1,2.1L819.1,240z M823.3,235.7
	l-2.1-2.1l2.1-2.1l2.1,2.1L823.3,235.7z M827.6,231.5l-2.1-2.1l2.1-2.1l2.1,2.1L827.6,231.5z M831.9,227.3l-2.1-2.1l2.1-2.1l2.1,2.1
	L831.9,227.3z M836.1,223.1l-2.1-2.1l2.1-2.1l2.1,2.1L836.1,223.1z M840.4,218.9l-2.1-2.1l2.1-2.1l2.1,2.1L840.4,218.9z
	 M844.6,214.6l-2.1-2.1l2.1-2.1l2.1,2.1L844.6,214.6z M848.9,210.4l-2.1-2.1l2.1-2.1l2.1,2.1L848.9,210.4z M853.2,206.2l-2.1-2.1
	l2.1-2.1l2.1,2.1L853.2,206.2z M857.4,202l-2.1-2.1l2.1-2.1l2.1,2.1L857.4,202z M861.7,197.7l-2.1-2.1l2.1-2.1l2.1,2.1L861.7,197.7z
	 M865.9,193.5l-2.1-2.1l2.1-2.1l2.1,2.1L865.9,193.5z"/>
<path class="st1" d="M47,957.2l-2.9-0.6l0.6-2.9l2.9,0.6L47,957.2z M48.3,951.3l-2.9-0.6l0.6-2.9l2.9,0.6L48.3,951.3z M49.5,945.5
	l-2.9-0.6l0.6-2.9l2.9,0.6L49.5,945.5z M50.8,939.6l-2.9-0.6l0.6-2.9l2.9,0.6L50.8,939.6z M52.1,933.8l-2.9-0.6l0.6-2.9l2.9,0.6
	L52.1,933.8z M53.4,927.9l-2.9-0.6l0.6-2.9L54,925L53.4,927.9z M54.7,922l-2.9-0.6l0.6-2.9l2.9,0.6L54.7,922z M56,916.2l-2.9-0.6
	l0.6-2.9l2.9,0.6L56,916.2z M57.3,910.3l-2.9-0.6l0.6-2.9l2.9,0.6L57.3,910.3z M58.5,904.4l-2.9-0.6l0.6-2.9l2.9,0.6L58.5,904.4z
	 M59.8,898.6l-2.9-0.6l0.6-2.9l2.9,0.6L59.8,898.6z M61.1,892.7l-2.9-0.6l0.6-2.9l2.9,0.6L61.1,892.7z M62.4,886.9l-2.9-0.6l0.6-2.9
	l2.9,0.6L62.4,886.9z M63.7,881l-2.9-0.6l0.6-2.9l2.9,0.6L63.7,881z M65,875.1l-2.9-0.6l0.6-2.9l2.9,0.6L65,875.1z M66.3,869.3
	l-2.9-0.6l0.6-2.9l2.9,0.6L66.3,869.3z M67.5,863.4l-2.9-0.6l0.6-2.9l2.9,0.6L67.5,863.4z M68.8,857.6l-2.9-0.6l0.6-2.9l2.9,0.6
	L68.8,857.6z M70.1,851.7l-2.9-0.6l0.6-2.9l2.9,0.6L70.1,851.7z M71.4,845.8l-2.9-0.6l0.6-2.9l2.9,0.6L71.4,845.8z M72.7,840
	l-2.9-0.6l0.6-2.9l2.9,0.6L72.7,840z M74,834.1l-2.9-0.6l0.6-2.9l2.9,0.6L74,834.1z M75.3,828.3l-2.9-0.6l0.6-2.9l2.9,0.6
	L75.3,828.3z M76.5,822.4l-2.9-0.6l0.6-2.9l2.9,0.6L76.5,822.4z M77.8,816.5l-2.9-0.6l0.6-2.9l2.9,0.6L77.8,816.5z M79.1,810.7
	l-2.9-0.6l0.6-2.9l2.9,0.6L79.1,810.7z M80.4,804.8l-2.9-0.6l0.6-2.9l2.9,0.6L80.4,804.8z M81.7,799l-2.9-0.6l0.6-2.9l2.9,0.6
	L81.7,799z M83,793.1l-2.9-0.6l0.6-2.9l2.9,0.6L83,793.1z M84.3,787.2l-2.9-0.6l0.6-2.9l2.9,0.6L84.3,787.2z M85.5,781.4l-2.9-0.6
	l0.6-2.9l2.9,0.6L85.5,781.4z M86.8,775.5l-2.9-0.6l0.6-2.9l2.9,0.6L86.8,775.5z M88.1,769.7l-2.9-0.6l0.6-2.9l2.9,0.6L88.1,769.7z
	 M89.4,763.8l-2.9-0.6l0.6-2.9l2.9,0.6L89.4,763.8z M90.7,757.9l-2.9-0.6l0.6-2.9l2.9,0.6L90.7,757.9z M92,752.1l-2.9-0.6l0.6-2.9
	l2.9,0.6L92,752.1z M93.3,746.2l-2.9-0.6l0.6-2.9l2.9,0.6L93.3,746.2z M94.5,740.4l-2.9-0.6l0.6-2.9l2.9,0.6L94.5,740.4z
	 M95.8,734.5l-2.9-0.6l0.6-2.9l2.9,0.6L95.8,734.5z M97.1,728.6l-2.9-0.6l0.6-2.9l2.9,0.6L97.1,728.6z M98.4,722.8l-2.9-0.6l0.6-2.9
	l2.9,0.6L98.4,722.8z M99.7,716.9l-2.9-0.6l0.6-2.9l2.9,0.6L99.7,716.9z M101,711l-2.9-0.6l0.6-2.9l2.9,0.6L101,711z M102.3,705.2
	l-2.9-0.6l0.6-2.9l2.9,0.6L102.3,705.2z M103.5,699.3l-2.9-0.6l0.6-2.9l2.9,0.6L103.5,699.3z M104.8,693.5l-2.9-0.6l0.6-2.9l2.9,0.6
	L104.8,693.5z M106.1,687.6l-2.9-0.6l0.6-2.9l2.9,0.6L106.1,687.6z M107.4,681.7l-2.9-0.6l0.6-2.9l2.9,0.6L107.4,681.7z
	 M108.7,675.9l-2.9-0.6l0.6-2.9l2.9,0.6L108.7,675.9z M110,670l-2.9-0.6l0.6-2.9l2.9,0.6L110,670z M111.3,664.2l-2.9-0.6l0.6-2.9
	l2.9,0.6L111.3,664.2z M112.5,658.3l-2.9-0.6l0.6-2.9l2.9,0.6L112.5,658.3z M113.8,652.4l-2.9-0.6l0.6-2.9l2.9,0.6L113.8,652.4z
	 M115.1,646.6l-2.9-0.6l0.6-2.9l2.9,0.6L115.1,646.6z M116.4,640.7l-2.9-0.6l0.6-2.9l2.9,0.6L116.4,640.7z M117.7,634.9l-2.9-0.6
	l0.6-2.9l2.9,0.6L117.7,634.9z M119,629l-2.9-0.6l0.6-2.9l2.9,0.6L119,629z M120.3,623.1l-2.9-0.6l0.6-2.9l2.9,0.6L120.3,623.1z
	 M121.5,617.3l-2.9-0.6l0.6-2.9l2.9,0.6L121.5,617.3z M122.8,611.4l-2.9-0.6l0.6-2.9l2.9,0.6L122.8,611.4z M124.1,605.6l-2.9-0.6
	l0.6-2.9l2.9,0.6L124.1,605.6z M125.4,599.7l-2.9-0.6l0.6-2.9l2.9,0.6L125.4,599.7z M126.7,593.8l-2.9-0.6l0.6-2.9l2.9,0.6
	L126.7,593.8z M128,588l-2.9-0.6l0.6-2.9l2.9,0.6L128,588z M129.3,582.1l-2.9-0.6l0.6-2.9l2.9,0.6L129.3,582.1z M130.5,576.3
	l-2.9-0.6l0.6-2.9l2.9,0.6L130.5,576.3z M131.8,570.4l-2.9-0.6l0.6-2.9l2.9,0.6L131.8,570.4z M133.1,564.5l-2.9-0.6l0.6-2.9l2.9,0.6
	L133.1,564.5z M134.4,558.7l-2.9-0.6l0.6-2.9l2.9,0.6L134.4,558.7z M135.7,552.8l-2.9-0.6l0.6-2.9l2.9,0.6L135.7,552.8z M137,547
	l-2.9-0.6l0.6-2.9l2.9,0.6L137,547z M138.3,541.1l-2.9-0.6l0.6-2.9l2.9,0.6L138.3,541.1z M139.5,535.2l-2.9-0.6l0.6-2.9l2.9,0.6
	L139.5,535.2z M140.8,529.4l-2.9-0.6l0.6-2.9l2.9,0.6L140.8,529.4z M142.1,523.5l-2.9-0.6l0.6-2.9l2.9,0.6L142.1,523.5z
	 M143.4,517.6l-2.9-0.6l0.6-2.9l2.9,0.6L143.4,517.6z M144.7,511.8l-2.9-0.6l0.6-2.9l2.9,0.6L144.7,511.8z M146,505.9l-2.9-0.6
	l0.6-2.9l2.9,0.6L146,505.9z M147.3,500.1l-2.9-0.6l0.6-2.9l2.9,0.6L147.3,500.1z M148.5,494.2l-2.9-0.6l0.6-2.9l2.9,0.6
	L148.5,494.2z M149.8,488.3l-2.9-0.6l0.6-2.9l2.9,0.6L149.8,488.3z M151.1,482.5l-2.9-0.6l0.6-2.9l2.9,0.6L151.1,482.5z
	 M152.4,476.6l-2.9-0.6l0.6-2.9l2.9,0.6L152.4,476.6z M153.7,470.8l-2.9-0.6l0.6-2.9l2.9,0.6L153.7,470.8z M155,464.9l-2.9-0.6
	l0.6-2.9l2.9,0.6L155,464.9z M156.3,459l-2.9-0.6l0.6-2.9l2.9,0.6L156.3,459z M157.5,453.2l-2.9-0.6l0.6-2.9l2.9,0.6L157.5,453.2z
	 M158.8,447.3l-2.9-0.6l0.6-2.9l2.9,0.6L158.8,447.3z M160.1,441.5l-2.9-0.6l0.6-2.9l2.9,0.6L160.1,441.5z M161.4,435.6l-2.9-0.6
	l0.6-2.9l2.9,0.6L161.4,435.6z M162.7,429.7l-2.9-0.6l0.6-2.9l2.9,0.6L162.7,429.7z M164,423.9l-2.9-0.6l0.6-2.9l2.9,0.6L164,423.9z
	 M165.3,418l-2.9-0.6l0.6-2.9l2.9,0.6L165.3,418z M166.5,412.2l-2.9-0.6l0.6-2.9l2.9,0.6L166.5,412.2z M167.8,406.3l-2.9-0.6
	l0.6-2.9l2.9,0.6L167.8,406.3z M169.1,400.4l-2.9-0.6l0.6-2.9l2.9,0.6L169.1,400.4z M170.4,394.6l-2.9-0.6l0.6-2.9l2.9,0.6
	L170.4,394.6z M171.7,388.7l-2.9-0.6l0.6-2.9l2.9,0.6L171.7,388.7z M173,382.9l-2.9-0.6l0.6-2.9l2.9,0.6L173,382.9z M174.3,377
	l-2.9-0.6l0.6-2.9l2.9,0.6L174.3,377z M175.5,371.1l-2.9-0.6l0.6-2.9l2.9,0.6L175.5,371.1z M176.8,365.3l-2.9-0.6l0.6-2.9l2.9,0.6
	L176.8,365.3z M178.1,359.4l-2.9-0.6l0.6-2.9l2.9,0.6L178.1,359.4z M179.4,353.6l-2.9-0.6l0.6-2.9l2.9,0.6L179.4,353.6z
	 M180.7,347.7l-2.9-0.6l0.6-2.9l2.9,0.6L180.7,347.7z M182,341.8l-2.9-0.6l0.6-2.9l2.9,0.6L182,341.8z M183.3,336l-2.9-0.6l0.6-2.9
	l2.9,0.6L183.3,336z M184.5,330.1l-2.9-0.6l0.6-2.9l2.9,0.6L184.5,330.1z M185.8,324.2l-2.9-0.6l0.6-2.9l2.9,0.6L185.8,324.2z
	 M187.1,318.4l-2.9-0.6l0.6-2.9l2.9,0.6L187.1,318.4z M188.4,312.5l-2.9-0.6l0.6-2.9l2.9,0.6L188.4,312.5z M189.7,306.7l-2.9-0.6
	l0.6-2.9l2.9,0.6L189.7,306.7z M191,300.8l-2.9-0.6l0.6-2.9l2.9,0.6L191,300.8z M192.3,294.9l-2.9-0.6l0.6-2.9l2.9,0.6L192.3,294.9z
	 M193.5,289.1l-2.9-0.6l0.6-2.9l2.9,0.6L193.5,289.1z M194.8,283.2l-2.9-0.6l0.6-2.9l2.9,0.6L194.8,283.2z M196.1,277.4l-2.9-0.6
	l0.6-2.9l2.9,0.6L196.1,277.4z M197.4,271.5l-2.9-0.6l0.6-2.9l2.9,0.6L197.4,271.5z M198.7,265.6l-2.9-0.6l0.6-2.9l2.9,0.6
	L198.7,265.6z M200,259.8l-2.9-0.6l0.6-2.9l2.9,0.6L200,259.8z M201.3,253.9l-2.9-0.6l0.6-2.9l2.9,0.6L201.3,253.9z M202.5,248.1
	l-2.9-0.6l0.6-2.9l2.9,0.6L202.5,248.1z M203.8,242.2l-2.9-0.6l0.6-2.9l2.9,0.6L203.8,242.2z M205.1,236.3l-2.9-0.6l0.6-2.9l2.9,0.6
	L205.1,236.3z M206.4,230.5l-2.9-0.6l0.6-2.9l2.9,0.6L206.4,230.5z M207.7,224.6l-2.9-0.6l0.6-2.9l2.9,0.6L207.7,224.6z M209,218.8
	l-2.9-0.6l0.6-2.9l2.9,0.6L209,218.8z M210.3,212.9l-2.9-0.6l0.6-2.9l2.9,0.6L210.3,212.9z M211.5,207l-2.9-0.6l0.6-2.9l2.9,0.6
	L211.5,207z M212.8,201.2l-2.9-0.6l0.6-2.9l2.9,0.6L212.8,201.2z M214.1,195.3l-2.9-0.6l0.6-2.9l2.9,0.6L214.1,195.3z M215.4,189.5
	l-2.9-0.6l0.6-2.9l2.9,0.6L215.4,189.5z M216.7,183.6l-2.9-0.6l0.6-2.9l2.9,0.6L216.7,183.6z M218,177.7l-2.9-0.6l0.6-2.9l2.9,0.6
	L218,177.7z M219.3,171.9l-2.9-0.6l0.6-2.9l2.9,0.6L219.3,171.9z M220.5,166l-2.9-0.6l0.6-2.9l2.9,0.6L220.5,166z M221.8,160.2
	l-2.9-0.6l0.6-2.9l2.9,0.6L221.8,160.2z M223.1,154.3l-2.9-0.6l0.6-2.9l2.9,0.6L223.1,154.3z M224.4,148.4l-2.9-0.6l0.6-2.9l2.9,0.6
	L224.4,148.4z M225.7,142.6l-2.9-0.6l0.6-2.9l2.9,0.6L225.7,142.6z M227,136.7l-2.9-0.6l0.6-2.9l2.9,0.6L227,136.7z M228.3,130.8
	l-2.9-0.6l0.6-2.9l2.9,0.6L228.3,130.8z M229.5,125l-2.9-0.6l0.6-2.9l2.9,0.6L229.5,125z M230.8,119.1l-2.9-0.6l0.6-2.9l2.9,0.6
	L230.8,119.1z M232.1,113.3l-2.9-0.6l0.6-2.9l2.9,0.6L232.1,113.3z M233.4,107.4l-2.9-0.6l0.6-2.9l2.9,0.6L233.4,107.4z
	 M234.7,101.5l-2.9-0.6l0.6-2.9l2.9,0.6L234.7,101.5z M236,95.7L233,95l0.6-2.9l2.9,0.6L236,95.7z M237.3,89.8l-2.9-0.6l0.6-2.9
	l2.9,0.6L237.3,89.8z M238.5,84l-2.9-0.6l0.6-2.9l2.9,0.6L238.5,84z M239.8,78.1l-2.9-0.6l0.6-2.9l2.9,0.6L239.8,78.1z M241.1,72.2
	l-2.9-0.6l0.6-2.9l2.9,0.6L241.1,72.2z M242.4,66.4l-2.9-0.6l0.6-2.9l2.9,0.6L242.4,66.4z M243.7,60.5l-2.9-0.6l0.6-2.9l2.9,0.6
	L243.7,60.5z M245,54.7L242,54l0.6-2.9l2.9,0.6L245,54.7z M246.3,48.8l-2.9-0.6l0.6-2.9l2.9,0.6L246.3,48.8z M247.6,42.9l-2.9-0.6
	l0.6-2.9l2.9,0.6L247.6,42.9z M248.8,37.1l-2.9-0.6l0.6-2.9l2.9,0.6L248.8,37.1z M250.1,31.2l-2.9-0.6l0.6-2.9l2.9,0.6L250.1,31.2z
	 M251.4,25.4l-2.9-0.6l0.6-2.9l2.9,0.6L251.4,25.4z M252.7,19.5l-2.9-0.6l0.6-2.9l2.9,0.6L252.7,19.5z M254,13.6L251,13l0.6-2.9
	l2.9,0.6L254,13.6z M255.3,7.8l-2.9-0.6l0.6-2.9l2.9,0.6L255.3,7.8z M256.6,1.9l-2.9-0.6l0.3-1.3l0.7,0h1.2l1.2,0L256.6,1.9z"/>
</svg>
