<?xml version="1.0" encoding="utf-8"?>
<svg enable-background="new 0 0 298 965" viewBox="0 0 298 965" xmlns="http://www.w3.org/2000/svg"><g fill="#ffc904"><path d="m298 430.9v-6.4c-54.6 19.1-103.9 49.5-145.1 88.5-4.2-3-9.3-4.8-14.9-4.8-14.1 0-25.5 11.4-25.5 25.5 0 6.2 2.2 11.9 5.9 16.3-58 70.3-92.9 160.5-92.9 258.8 0 13.8.7 27.3 2 40.7-15.7 4.9-27 19.5-27 36.8 0 21.3 17.2 38.5 38.5 38.5 1.1 0 2.2-.1 3.2-.1 4.3 14.5 9.4 28.6 15.2 42.4h6.5c-6-14.1-11.3-28.5-15.7-43.4 16.8-4.1 29.3-19.3 29.3-37.4 0-21.3-17.2-38.5-38.5-38.5-1.9 0-3.8.1-5.6.4-1.3-13-1.9-26.1-1.9-39.4 0-96.7 34.2-185.4 91.2-254.7 4.3 3.2 9.5 5.1 15.3 5.1 14.1 0 25.5-11.4 25.5-25.5 0-6.3-2.3-12.1-6.2-16.6 40.1-37.8 87.8-67.4 140.7-86.2zm-264 422.7c1.6-.2 3.3-.4 5-.4 18.2 0 33 14.8 33 33 0 15.6-10.8 28.6-25.3 32.1-1.9.5-3.9.8-6 .9-.6 0-1.1 0-1.7 0-18.2 0-33-14.8-33-33 0-14.4 9.2-26.7 22.1-31.2 1.9-.6 3.9-1.1 5.9-1.4z"/><path d="m125.2 181.3h6v6h-6z" transform="matrix(.9648 -.263 .263 .9648 -43.9631 40.192)"/><path d="m122 169.8h6v6h-6z" transform="matrix(.9648 -.263 .263 .9648 -41.0293 38.9543)"/><path d="m118.9 158.2h6v6h-6z" transform="matrix(.9648 -.263 .263 .9648 -38.0959 37.7171)"/><path d="m93.6 65.6h6v6h-6z" transform="matrix(.9648 -.263 .263 .9648 -14.6288 27.8198)"/><path d="m137.8 227.6h6v6h-6z" transform="matrix(.9648 -.2629 .2629 .9648 -55.6945 45.1384)"/><path d="m131.5 204.5h6v6h-6z" transform="matrix(.9648 -.2629 .2629 .9648 -49.8279 42.6641)"/><path d="m134.6 216.1h6v6h-6z" transform="matrix(.9648 -.2629 .2629 .9648 -52.7612 43.9013)"/><path d="m128.3 192.9h6v6h-6z" transform="matrix(.9648 -.263 .263 .9648 -46.8965 41.4292)"/><path d="m109.4 123.5h6v6h-6z" transform="matrix(.9648 -.263 .263 .9648 -29.296 34.0059)"/><path d="m103.1 100.3h6v6h-6z" transform="matrix(.9648 -.263 .263 .9648 -23.4289 31.5311)"/><path d="m99.9 88.7h6v6h-6z" transform="matrix(.9648 -.263 .263 .9648 -20.4955 30.2939)"/><path d="m115.7 146.6h6v6h-6z" transform="matrix(.9648 -.263 .263 .9648 -35.1625 36.4799)"/><path d="m96.8 77.1h6v6h-6z" transform="matrix(.9648 -.263 .263 .9648 -17.5621 29.0567)"/><path d="m112.6 135h6v6h-6z" transform="matrix(.9648 -.263 .263 .9648 -32.2294 35.2431)"/><path d="m144.1 250.8h6v6h-6z" transform="matrix(.9648 -.263 .263 .9648 -61.5617 47.6133)"/><path d="m106.2 111.9h6v6h-6z" transform="matrix(.9648 -.263 .263 .9648 -26.3626 32.7687)"/><path d="m141 239.2h6v6h-6z" transform="matrix(.9648 -.263 .263 .9648 -58.6283 46.3761)"/><path d="m185.1 401.3h6v6h-6z" transform="matrix(.9648 -.263 .263 .9648 -99.6982 63.6992)"/><path d="m191.4 424.5h6v6h-6z" transform="matrix(.9648 -.263 .263 .9648 -105.5641 66.1729)"/><path d="m188.3 412.9h6v6h-6z" transform="matrix(.9648 -.263 .263 .9648 -102.6307 64.9357)"/><path d="m182 389.7h6v6h-6z" transform="matrix(.9648 -.263 .263 .9648 -96.7648 62.462)"/><path d="m197.7 447.6h6v6h-6z" transform="matrix(.9648 -.263 .263 .9648 -111.4282 68.6451)"/><path d="m147.3 262.4h6v6h-6z" transform="matrix(.9648 -.263 .263 .9648 -64.495 48.8505)"/><path d="m200.9 459.2h6v6h-6z" transform="matrix(.9648 -.263 .263 .9648 -114.3615 69.8822)"/><path d="m178.8 378.2h6v6h-6z" transform="matrix(.9648 -.263 .263 .9648 -93.8314 61.2248)"/><path d="m194.6 436h6v6h-6z" transform="matrix(.9648 -.263 .263 .9648 -108.4975 67.4101)"/><path d="m156.7 297.1h6v6h-6z" transform="matrix(.9648 -.263 .263 .9648 -73.2967 52.5636)"/><path d="m175.7 366.6h6v6h-6z" transform="matrix(.9648 -.263 .263 .9648 -90.8971 59.9868)"/><path d="m159.9 308.7h6v6h-6z" transform="matrix(.9648 -.263 .263 .9648 -76.2308 53.8015)"/><path d="m150.4 274h6v6h-6z" transform="matrix(.9648 -.2629 .2629 .9648 -67.4277 50.087)"/><path d="m153.6 285.5h6v6h-6z" transform="matrix(.9648 -.263 .263 .9648 -70.3633 51.3264)"/><path d="m169.3 343.4h6v6h-6z" transform="matrix(.9648 -.263 .263 .9648 -85.0303 57.5124)"/><path d="m166.2 331.8h6v6h-6z" transform="matrix(.9648 -.263 .263 .9648 -82.0977 56.2759)"/><path d="m163 320.3h6v6h-6z" transform="matrix(.9648 -.263 .263 .9648 -79.1642 55.0387)"/><path d="m172.5 355h6v6h-6z" transform="matrix(.9648 -.263 .263 .9648 -87.9637 58.7496)"/><path d="m270.3 713.9h6v6h-6z" transform="matrix(.9648 -.2629 .2629 .9648 -178.8931 97.0986)"/><path d="m260.9 679.2h6v6h-6z" transform="matrix(.9648 -.263 .263 .9648 -170.0947 93.3883)"/><path d="m245.1 621.3h6v6h-6z" transform="matrix(.9648 -.263 .263 .9648 -155.4334 87.2065)"/><path d="m257.7 667.6h6v6h-6z" transform="matrix(.9648 -.2629 .2629 .9648 -167.1599 92.15)"/><path d="m264 690.8h6v6h-6z" transform="matrix(.9648 -.263 .263 .9648 -173.0281 94.6255)"/><path d="m248.2 632.9h6v6h-6z" transform="matrix(.9648 -.263 .263 .9648 -158.3668 88.4437)"/><path d="m251.4 644.4h6v6h-6z" transform="matrix(.9648 -.263 .263 .9648 -161.2987 89.6798)"/><path d="m254.5 656h6v6h-6z" transform="matrix(.9648 -.263 .263 .9648 -164.2321 90.917)"/><path d="m267.2 702.3h6v6h-6z" transform="matrix(.9648 -.263 .263 .9648 -175.9614 95.8627)"/><path d="m296.5 813.2 1.5-.4v-6.2l-3.1.8z"/><path d="m289.3 783.4h6v6h-6z" transform="matrix(.9648 -.263 .263 .9648 -196.4995 104.5263)"/><path d="m297.5 794.3-5.8 1.6 1.6 5.7 4.7-1.2v-4.4z"/><path d="m286.1 771.8h6v6h-6z" transform="matrix(.9648 -.263 .263 .9648 -193.5613 103.2856)"/><path d="m273.5 725.5h6v6h-6z" transform="matrix(.9648 -.2629 .2629 .9648 -181.8264 98.3358)"/><path d="m276.6 737.1h6v6h-6z" transform="matrix(.9648 -.2629 .2629 .9648 -184.7596 99.5729)"/><path d="m279.8 748.6h6v6h-6z" transform="matrix(.9648 -.263 .263 .9648 -187.6947 100.8113)"/><path d="m282.9 760.2h6v6h-6z" transform="matrix(.9648 -.263 .263 .9648 -190.628 102.0485)"/><path d="m235.6 586.6h6v6h-6z" transform="matrix(.9648 -.263 .263 .9648 -146.6317 83.4938)"/><path d="m207.2 482.4h6v6h-6z" transform="matrix(.9648 -.263 .263 .9648 -120.2322 72.3598)"/><path d="m81.4 1.2-.4-1.2h-2.1-4.1l.8 2.8z"/><path d="m213.5 505.5h6v6h-6z" transform="matrix(.9648 -.263 .263 .9648 -126.0991 74.8343)"/><path d="m210.4 493.9h6v6h-6z" transform="matrix(.9648 -.263 .263 .9648 -123.1657 73.597)"/><path d="m77.8 7.7h6v6h-6z" transform="matrix(.9648 -.2629 .2629 .9648 .038152 21.6326)"/><path d="m87.3 42.4h6v6h-6z" transform="matrix(.9648 -.263 .263 .9648 -8.7618 25.3443)"/><path d="m84.2 30.8h6v6h-6z" transform="matrix(.9648 -.2629 .2629 .9648 -5.8284 24.1069)"/><path d="m81 19.3h6v6h-6z" transform="matrix(.9648 -.2629 .2629 .9648 -2.8951 22.8698)"/><path d="m232.5 575h6v6h-6z" transform="matrix(.9648 -.263 .263 .9648 -143.6997 82.2576)"/><path d="m241.9 609.7h6v6h-6z" transform="matrix(.9648 -.263 .263 .9648 -152.4985 85.9682)"/><path d="m216.7 517.1h6v6h-6z" transform="matrix(.9648 -.263 .263 .9648 -129.0313 76.0705)"/><path d="m238.8 598.1h6v6h-6z" transform="matrix(.9648 -.263 .263 .9648 -149.5651 84.731)"/><path d="m229.3 563.4h6v6h-6z" transform="matrix(.9648 -.263 .263 .9648 -140.7662 81.0204)"/><path d="m90.5 54h6v6h-6z" transform="matrix(.9648 -.263 .263 .9648 -11.6954 26.5825)"/><path d="m219.8 528.7h6v6h-6z" transform="matrix(.9648 -.263 .263 .9648 -131.9647 77.3077)"/><path d="m226.1 551.8h6v6h-6z" transform="matrix(.9648 -.263 .263 .9648 -137.8328 79.7831)"/><path d="m223 540.2h6v6h-6z" transform="matrix(.9648 -.263 .263 .9648 -134.8981 78.545)"/></g></svg>