<?xml version="1.0" encoding="utf-8"?>
<!-- Generator: Adobe Illustrator 26.3.1, SVG Export Plug-In . SVG Version: 6.00 Build 0)  -->
<svg version="1.1" id="Layer_1" xmlns="http://www.w3.org/2000/svg" xmlns:xlink="http://www.w3.org/1999/xlink" x="0px" y="0px"
	 viewBox="0 0 298 844.2" style="enable-background:new 0 0 298 844.2;" xml:space="preserve">
<style type="text/css">
	.st0{fill:#FFC904;}
</style>
<g>
	<path class="st0" d="M298,310.1v-6.4c-54.6,19.1-103.9,49.5-145.1,88.5c-4.2-3-9.3-4.8-14.9-4.8c-14.1,0-25.5,11.4-25.5,25.5
		c0,6.2,2.2,11.9,5.9,16.3c-58,70.3-92.9,160.5-92.9,258.8c0,13.8,0.7,27.3,2,40.7c-15.7,4.9-27,19.5-27,36.8
		C0.5,786.8,17.7,804,39,804c1.1,0,2.2-0.1,3.2-0.1c4.3,14.5,9.4,28.6,15.2,42.4h6.5c-6-14.1-11.3-28.5-15.7-43.4
		c16.8-4.1,29.3-19.3,29.3-37.4c0-21.3-17.2-38.5-38.5-38.5c-1.9,0-3.8,0.1-5.6,0.4c-1.3-13-1.9-26.1-1.9-39.4
		c0-96.7,34.2-185.4,91.2-254.7c4.3,3.2,9.5,5.1,15.3,5.1c14.1,0,25.5-11.4,25.5-25.5c0-6.3-2.3-12.1-6.2-16.6
		C197.4,358.5,245.1,328.9,298,310.1L298,310.1z M34,732.8c1.6-0.2,3.3-0.4,5-0.4c18.2,0,33,14.8,33,33c0,15.6-10.8,28.6-25.3,32.1
		c-1.9,0.5-3.9,0.8-6,0.9c-0.6,0-1.1,0-1.7,0c-18.2,0-33-14.8-33-33c0-14.4,9.2-26.7,22.1-31.2C30,733.6,32,733.1,34,732.8L34,732.8
		z"/>
	<path class="st0" d="M124.5,61.3l5.8-1.6l1.6,5.8l-5.8,1.6L124.5,61.3z"/>
	<path class="st0" d="M121.3,49.9l5.8-1.6l1.6,5.8l-5.8,1.6L121.3,49.9z"/>
	<path class="st0" d="M118.2,38.2l5.8-1.6l1.6,5.8l-5.8,1.6L118.2,38.2z"/>
	<path class="st0" d="M137.1,107.7l5.8-1.6l1.6,5.8l-5.8,1.6L137.1,107.7z"/>
	<path class="st0" d="M130.8,84.6l5.8-1.6l1.6,5.8l-5.8,1.6L130.8,84.6z"/>
	<path class="st0" d="M133.9,96.2l5.8-1.6l1.6,5.8l-5.8,1.6L133.9,96.2z"/>
	<path class="st0" d="M127.6,73l5.8-1.6l1.6,5.8l-5.8,1.6L127.6,73z"/>
	<path class="st0" d="M108.7,3.5l5.8-1.6l1.6,5.8l-5.8,1.6L108.7,3.5z"/>
	<path class="st0" d="M115,26.7l5.8-1.6l1.6,5.8l-5.8,1.6L115,26.7z"/>
	<path class="st0" d="M111.9,15l5.8-1.6l1.6,5.8l-5.8,1.6L111.9,15z"/>
	<path class="st0" d="M143.4,130.8l5.8-1.6l1.6,5.8l-5.8,1.6L143.4,130.8z"/>
	<path class="st0" d="M140.3,119.2l5.8-1.6l1.6,5.8l-5.8,1.6L140.3,119.2z"/>
	<path class="st0" d="M184.4,281.4l5.8-1.6l1.6,5.8l-5.8,1.6L184.4,281.4z"/>
	<path class="st0" d="M190.7,304.6l5.8-1.6l1.6,5.8l-5.8,1.6L190.7,304.6z"/>
	<path class="st0" d="M187.6,292.9l5.8-1.6l1.6,5.8l-5.8,1.6L187.6,292.9z"/>
	<path class="st0" d="M181.3,269.7l5.8-1.6l1.6,5.8l-5.8,1.6L181.3,269.7z"/>
	<path class="st0" d="M197,327.7l5.8-1.6l1.6,5.8l-5.8,1.6L197,327.7z"/>
	<path class="st0" d="M146.6,142.4l5.8-1.6l1.6,5.8l-5.8,1.6L146.6,142.4z"/>
	<path class="st0" d="M200.2,339.2l5.8-1.6l1.6,5.8l-5.8,1.6L200.2,339.2z"/>
	<path class="st0" d="M178.1,258.2l5.8-1.6l1.6,5.8l-5.8,1.6L178.1,258.2z"/>
	<path class="st0" d="M193.9,316l5.8-1.6l1.6,5.8l-5.8,1.6L193.9,316z"/>
	<path class="st0" d="M156,177.2l5.8-1.6l1.6,5.8l-5.8,1.6L156,177.2z"/>
	<path class="st0" d="M175,246.6l5.8-1.6l1.6,5.8l-5.8,1.6L175,246.6z"/>
	<path class="st0" d="M159.2,188.7l5.8-1.6l1.6,5.8l-5.8,1.6L159.2,188.7z"/>
	<path class="st0" d="M149.7,154.1l5.8-1.6l1.6,5.8l-5.8,1.6L149.7,154.1z"/>
	<path class="st0" d="M152.9,165.5l5.8-1.6l1.6,5.8l-5.8,1.6L152.9,165.5z"/>
	<path class="st0" d="M168.6,223.5l5.8-1.6l1.6,5.8l-5.8,1.6L168.6,223.5z"/>
	<path class="st0" d="M165.5,211.8l5.8-1.6l1.6,5.8l-5.8,1.6L165.5,211.8z"/>
	<path class="st0" d="M162.3,200.4l5.8-1.6l1.6,5.8l-5.8,1.6L162.3,200.4z"/>
	<path class="st0" d="M171.8,235l5.8-1.6l1.6,5.8l-5.8,1.6L171.8,235z"/>
	<path class="st0" d="M269.6,594l5.8-1.6l1.6,5.8l-5.8,1.6L269.6,594z"/>
	<path class="st0" d="M260.3,559.2l5.8-1.6l1.6,5.8l-5.8,1.6L260.3,559.2z"/>
	<path class="st0" d="M244.4,501.3l5.8-1.6l1.6,5.8l-5.8,1.6L244.4,501.3z"/>
	<path class="st0" d="M257,547.7l5.8-1.6l1.6,5.8l-5.8,1.6L257,547.7z"/>
	<path class="st0" d="M263.4,570.8l5.8-1.6l1.6,5.8l-5.8,1.6L263.4,570.8z"/>
	<path class="st0" d="M247.5,513l5.8-1.6l1.6,5.8l-5.8,1.6L247.5,513z"/>
	<path class="st0" d="M250.7,524.4l5.8-1.6l1.6,5.8l-5.8,1.6L250.7,524.4z"/>
	<path class="st0" d="M253.8,536.1l5.8-1.6l1.6,5.8l-5.8,1.6L253.8,536.1z"/>
	<path class="st0" d="M266.5,582.3l5.8-1.6l1.6,5.8l-5.8,1.6L266.5,582.3z"/>
	<path class="st0" d="M296.5,692.4l1.5-0.4v-6.2l-3.1,0.8L296.5,692.4z"/>
	<path class="st0" d="M288.7,663.4l5.8-1.6l1.6,5.8l-5.8,1.6L288.7,663.4z"/>
	<path class="st0" d="M297.5,673.5l-5.8,1.6l1.6,5.7l4.7-1.2v-4.4L297.5,673.5z"/>
	<path class="st0" d="M285.5,651.8l5.8-1.6l1.6,5.8l-5.8,1.6L285.5,651.8z"/>
	<path class="st0" d="M272.8,605.6l5.8-1.6l1.6,5.8l-5.8,1.6L272.8,605.6z"/>
	<path class="st0" d="M275.9,617.2l5.8-1.6l1.6,5.8l-5.8,1.6L275.9,617.2z"/>
	<path class="st0" d="M279.1,628.6l5.8-1.6l1.6,5.8l-5.8,1.6L279.1,628.6z"/>
	<path class="st0" d="M282.2,640.2l5.8-1.6l1.6,5.8l-5.8,1.6L282.2,640.2z"/>
	<path class="st0" d="M235,466.6l5.8-1.6l1.6,5.8l-5.8,1.6L235,466.6z"/>
	<path class="st0" d="M206.5,362.4l5.8-1.6l1.6,5.8l-5.8,1.6L206.5,362.4z"/>
	<path class="st0" d="M212.8,385.6l5.8-1.6l1.6,5.8l-5.8,1.6L212.8,385.6z"/>
	<path class="st0" d="M209.7,373.9l5.8-1.6l1.6,5.8l-5.8,1.6L209.7,373.9z"/>
	<path class="st0" d="M231.8,455l5.8-1.6l1.6,5.8l-5.8,1.6L231.8,455z"/>
	<path class="st0" d="M241.2,489.7l5.8-1.6l1.6,5.8l-5.8,1.6L241.2,489.7z"/>
	<path class="st0" d="M216,397.1l5.8-1.6l1.6,5.8l-5.8,1.6L216,397.1z"/>
	<path class="st0" d="M238.1,478.1l5.8-1.6l1.6,5.8l-5.8,1.6L238.1,478.1z"/>
	<path class="st0" d="M228.6,443.4l5.8-1.6l1.6,5.8l-5.8,1.6L228.6,443.4z"/>
	<path class="st0" d="M219.1,408.8l5.8-1.6l1.6,5.8l-5.8,1.6L219.1,408.8z"/>
	<path class="st0" d="M225.4,431.9l5.8-1.6l1.6,5.8l-5.8,1.6L225.4,431.9z"/>
	<path class="st0" d="M222.3,420.2l5.8-1.6l1.6,5.8l-5.8,1.6L222.3,420.2z"/>
</g>
</svg>
